Coordinates
version=1
nRows=49
nColumns=12
inDegrees=yes

Units are S.I. units (second, meters, Newtons, ...)
Angles are in degrees

endheader
time	SC_y	SC_z	SC_x	AC_y	AC_z	AC_x	GH_y	GH_z	GH_yy	EL_x	PS_y
       0.0              -16.26         -2.241          57.79          62.74          6.621         -4.598          88.08          74.07         -166.0          87.22          53.48
    0.0408              -16.26         -2.238          57.79          62.74          6.621         -4.596          88.09          74.06         -166.0          87.22          53.48
    0.0816              -16.26         -2.235          57.79          62.74           6.62         -4.593          88.09          74.05         -166.0          87.21          53.47
    0.1224              -16.26         -2.232          57.79          62.74          6.619         -4.591           88.1          74.03         -166.0           87.2          53.46
    0.1632              -16.26         -2.228          57.79          62.74          6.619         -4.589           88.1          74.02         -166.0           87.2          53.45
     0.204              -16.26         -2.224          57.79          62.74          6.618         -4.586           88.1           74.0         -166.0          87.19          53.45
    0.2448              -16.26          -2.22          57.79          62.74          6.617         -4.583          88.11          73.99         -166.0          87.18          53.44
    0.2856              -16.26         -2.216          57.79          62.74          6.616          -4.58          88.11          73.97         -166.0          87.18          53.43
    0.3264              -16.27         -2.211          57.79          62.73          6.615         -4.577          88.12          73.95         -166.0          87.17          53.42
    0.3672              -16.27         -2.206          57.79          62.73          6.614         -4.574          88.13          73.93         -166.0          87.16          53.41
     0.408              -16.27         -2.201          57.79          62.73          6.613          -4.57          88.13           73.9         -166.0          87.15          53.39
    0.4488              -16.27         -2.195          57.79          62.73          6.611         -4.566          88.14          73.88         -166.0          87.14          53.38
    0.4896              -16.27         -2.189          57.79          62.73           6.61         -4.562          88.15          73.85         -166.0          87.13          53.37
    0.5304              -16.27         -2.182          57.79          62.73          6.609         -4.557          88.15          73.82         -165.9          87.12          53.35
    0.5712              -16.28         -2.175          57.79          62.73          6.607         -4.552          88.16          73.79         -165.9           87.1          53.34
     0.612              -16.28         -2.167          57.79          62.72          6.605         -4.547          88.17          73.76         -165.9          87.09          53.32
    0.6528              -16.28         -2.158          57.79          62.72          6.604         -4.541          88.18          73.72         -165.9          87.07           53.3
    0.6936              -16.29         -2.149          57.79          62.72          6.601         -4.534          88.19          73.68         -165.9          87.06          53.28
    0.7344              -16.29         -2.139          57.79          62.72          6.599         -4.527          88.21          73.64         -165.9          87.04          53.26
    0.7752              -16.29         -2.128          57.79          62.72          6.597          -4.52          88.22          73.59         -165.9          87.02          53.23
     0.816               -16.3         -2.115          57.79          62.71          6.594         -4.511          88.23          73.54         -165.9           87.0           53.2
    0.8568               -16.3         -2.102          57.79          62.71          6.591         -4.502          88.25          73.48         -165.9          86.97          53.17
    0.8976              -16.31         -2.087          57.79          62.71          6.588         -4.492          88.27          73.42         -165.9          86.95          53.14
    0.9384              -16.31          -2.07          57.79           62.7          6.584          -4.48          88.29          73.35         -165.9          86.92           53.1
    0.9792              -16.32         -2.052          57.79           62.7           6.58         -4.468          88.31          73.27         -165.9          86.89          53.06
      1.02              -16.32         -2.031          57.79          62.69          6.576         -4.454          88.34          73.19         -165.9          86.85          53.02
     1.061              -16.33         -2.008           57.8          62.69          6.571         -4.438          88.36          73.09         -165.8          86.81          52.97
     1.102              -16.34         -1.983           57.8          62.68          6.565          -4.42          88.39          72.98         -165.8          86.76          52.91
     1.142              -16.35         -1.953           57.8          62.68          6.559           -4.4          88.43          72.86         -165.8          86.71          52.84
     1.183              -16.36          -1.92           57.8          62.67          6.552         -4.377          88.47          72.72         -165.8          86.65          52.77
     1.224              -16.37         -1.882           57.8          62.66          6.544         -4.351          88.51          72.56         -165.8          86.58          52.69
     1.265              -16.39         -1.839           57.8          62.65          6.534         -4.321          88.57          72.37         -165.7          86.51          52.59
     1.306               -16.4         -1.789           57.8          62.64          6.523         -4.287          88.63          72.16         -165.7          86.42          52.48
     1.346              -16.42          -1.73          57.81          62.63          6.511         -4.247           88.7          71.92         -165.7          86.32          52.35
     1.387              -16.45         -1.662          57.81          62.61          6.496           -4.2          88.78          71.63         -165.6          86.19           52.2
     1.428              -16.47         -1.582          57.81          62.59          6.479         -4.145          88.88          71.29         -165.6          86.05          52.02
     1.469               -16.5         -1.486          57.82          62.57          6.458         -4.079          88.99          70.88         -165.5          85.88          51.81
      1.51              -16.54         -1.372          57.82          62.55          6.433         -4.001          89.13           70.4         -165.5          85.68          51.56
      1.55              -16.59         -1.233          57.83          62.51          6.403         -3.905          89.29          69.81         -165.4          85.43          51.25
     1.591              -16.64         -1.064          57.83          62.48          6.366         -3.789           89.5           69.1         -165.3          85.13          50.87
     1.632              -16.71        -0.8549          57.84          62.43          6.321         -3.646          89.75          68.22         -165.1          84.76          50.41
     1.673               -16.8        -0.5944          57.85          62.37          6.265         -3.467          90.06          67.11         -165.0           84.3          49.84
     1.714              -16.91        -0.2662          57.86           62.3          6.194         -3.242          90.45          65.73         -164.8          83.72          49.11
     1.754              -17.04         0.1511          57.88           62.2          6.103         -2.955          90.95          63.97         -164.5          82.98          48.18
     1.795              -17.22         0.6851           57.9          62.08          5.988         -2.589           91.6          61.71         -164.2          82.03           47.0
     1.836              -17.45           1.37          57.93          61.93          5.839         -2.118          92.42          58.81         -163.8          80.81          45.48
     1.877              -17.74          2.246          57.96          61.73           5.65         -1.517          93.47          55.11         -163.3          79.26          43.55
     1.918               -18.1          3.346          58.01          61.48          5.411        -0.7614          94.79          50.46         -162.6          77.31          41.11
     1.958              -18.54          4.688          58.06          61.18          5.121         0.1594           96.4           44.8         -161.8          74.93          38.14
